<svg id="emxqs2va3GN1" xmlns="http://www.w3.org/2000/svg" xmlns:xlink="http://www.w3.org/1999/xlink" viewBox="0 0 640 640" shape-rendering="geometricPrecision" text-rendering="geometricPrecision" style="background-color:rgb(255,255,255)"><defs><linearGradient id="emxqs2va3GN3-fill" x1="0.489361" y1="-0.003830" x2="0.496370" y2="0.706156" spreadMethod="pad" gradientUnits="objectBoundingBox"><stop id="emxqs2va3GN3-fill-0" offset="0%" stop-color="rgb(21,32,85)"/><stop id="emxqs2va3GN3-fill-1" offset="100%" stop-color="rgb(12,11,51)"/></linearGradient><linearGradient id="emxqs2va3GN4-fill" x1="0.205284" y1="-0.273163" x2="0.550399" y2="1.124969" spreadMethod="pad" gradientUnits="objectBoundingBox"><stop id="emxqs2va3GN4-fill-0" offset="0%" stop-color="rgb(44,218,250)"/><stop id="emxqs2va3GN4-fill-1" offset="100%" stop-color="rgb(0,43,85)"/></linearGradient><linearGradient id="emxqs2va3GN5-fill" x1="0.215154" y1="0.780113" x2="0.756772" y2="0.270218" spreadMethod="pad" gradientUnits="objectBoundingBox"><stop id="emxqs2va3GN5-fill-0" offset="0%" stop-color="rgb(7,16,58)"/><stop id="emxqs2va3GN5-fill-1" offset="100%" stop-color="rgb(126,147,255)"/></linearGradient><linearGradient id="emxqs2va3GN8-fill" x1="1.636801" y1="-0.552278" x2="0.401187" y2="0.886182" spreadMethod="pad" gradientUnits="objectBoundingBox"><stop id="emxqs2va3GN8-fill-0" offset="0%" stop-color="rgb(126,147,255)"/><stop id="emxqs2va3GN8-fill-1" offset="100%" stop-color="rgb(45,58,121)"/></linearGradient><linearGradient id="emxqs2va3GN9-stroke" x1="0" y1="0.500000" x2="1" y2="0.500000" spreadMethod="pad" gradientUnits="objectBoundingBox"><stop id="emxqs2va3GN9-stroke-0" offset="0%" stop-color="rgb(143,194,255)"/><stop id="emxqs2va3GN9-stroke-1" offset="100%" stop-color="rgb(255,255,255)"/></linearGradient></defs><g id="emxqs2va3GN2" transform="matrix(1 0 0 1 -42.15932700000002 88.62340200000003)"><ellipse id="emxqs2va3GN3" rx="236.187196" ry="236.187196" transform="matrix(1.04105709329976 0 0 1.04105709329976 365.09482000000025 214.94817199999991)" fill="url(#emxqs2va3GN3-fill)" stroke="none" stroke-width="0"/><path id="emxqs2va3GN4" d="M-289.230631,17.691864C-289.230631,-24.242721,-142.505471,-62.233699,-6.493952,-62.233699C64.671833,-62.233699,72.786316,-28.421499,106.400906,-13.279291C137.030271,0.518177,197.726326,9.652507,197.726326,29.645512C197.726326,71.580098,93.551064,77.636037,-42.460455,77.636037C-178.471974,77.636037,-289.230631,59.626450,-289.230631,17.691864Z" transform="matrix(1 0 0 -1 408.65189399999997 430.24995250000006)" fill="url(#emxqs2va3GN4-fill)" stroke="none" stroke-width="0"/><path id="emxqs2va3GN5" d="M167.547050,66.547574C173.540220,75.886114,176.163280,79.731294,174.514040,81.380534C172.864810,83.029774,165.655230,86.456844,157.779370,80.414054C137.830230,66.734644,124.428340,6.355504,92.154550,18.962444C59.880760,31.569394,109.025362,151.376295,156.845157,198.255372C206.321869,246.758771,228.312463,286.452788,204.738513,332.361318C181.164573,378.269848,113.563146,388.433218,25.902218,366.921334C-61.758710,345.409450,-129.240647,274.746628,-166.946440,213.450364C-121.867340,226.117224,-74.840800,220.857634,-34.376710,220.920524C-37.824260,216.054404,-41.416480,211.136074,-45.218480,206.193974C-53.691650,195.179954,-64.887820,186.042854,-77.193570,178.644054C-36.583430,180.366444,9.203880,181.728544,45.873840,187.349484C64.190590,190.157164,80.654590,196.060584,95.003290,203.495724C87.869460,192.516164,80.833360,180.615664,74.281660,168.121714C44.110220,110.585484,23.060380,25.684454,59.546770,-10.100276C96.033160,-45.885006,143.727781,-27.480288,162.311210,6.399394C180.894639,40.279076,171.687769,54.418392,162.922839,56.216332Q164.363974,60.709282,167.547050,66.547574Z" transform="matrix(1 0 0 1 315.64696099999998 44.47930400000001)" fill="url(#emxqs2va3GN5-fill)" stroke="none" stroke-width="5" stroke-miterlimit="36" stroke-dasharray="2648.400000"/><path id="emxqs2va3GN6" style="isolation:isolate" d="M-172.029167,7.978511C-158.386639,-36.834568,-190.931155,-55.665225,-178.755464,-55.665225C-166.579773,-55.665225,-142.645988,-26.050163,-138.918957,5.869939C-135.191926,37.790041,-139.053749,56.035626,-153.351334,53.606961C-167.648919,51.178296,-186.500824,58.258855,-172.029167,7.978511Z" transform="matrix(0.55880923602430 -0.26187374256261 0.22863528976253 0.48788210055022 551.93477499999983 34.70293050000004)" fill="rgb(10,3,27)" stroke="none" stroke-width="0"/><path id="emxqs2va3GN7" d="M407.475179,108.437143C403.174857,101.324718,398.898524,89.651594,401.371086,83.410361C403.843648,77.169128,415.870827,69.090546,425.592491,92.646886C435.314155,116.203226,440.174987,117.138000,439.988032,124.242293C439.801077,131.346586,426.397867,135.295153,407.475179,108.437143Z" transform="matrix(1 0 0 1 63.10104500000006 16.93432199999999)" fill="rgb(255,81,140)" stroke="none" stroke-width="1.280000"/><path id="emxqs2va3GN8" d="M354.767411,287.339369C373.287488,300.983644,419.068390,331.488683,404.745899,362.862417C390.423408,394.236151,342.142255,410.017333,259.761415,379.418735C177.380575,348.820137,107.096237,266.792657,90.992058,241.803413C230.931824,244.024679,276.556639,244.213736,354.767411,287.339369Z" transform="matrix(1 0 0 1 54.09041600000000 14.11876000000001)" fill="url(#emxqs2va3GN8-fill)" stroke="none" stroke-width="1.280000"/></g><path id="emxqs2va3GN9" d="M220.914252,431.101285C311.167852,446.340841,382.331868,440.104658,405.905812,394.196126C429.479756,348.287595,395.404892,310.922241,346.746558,265.866003C298.088224,220.809765,241.129683,96.335589,273.403468,83.728641C305.677253,71.121694,319.079138,131.500835,339.028283,145.180249C346.904149,151.223046,354.113722,147.795968,355.762957,146.146733C357.412192,144.497498,354.789136,140.652314,348.795962,131.313776C342.802788,121.975238,337.598610,106.125922,335.760939,98.051992C333.923267,89.978062,327.220750,78.724199,324.523849,83.668518C321.826948,88.612836,329.468168,106.142695,338.233098,104.344761C346.998027,102.546827,356.844121,97.322723,343.560129,71.165603C330.276137,45.008483,277.282083,18.881203,240.795692,54.665933C204.309301,90.450663,225.359142,175.351687,255.530581,232.887919C285.702020,290.424151,326.146111,335.375165,339.101196,335.756198C352.056282,336.137230,307.370392,264.416420,227.122764,252.115689C146.875136,239.814958,22.964616,247.909777,5.199353,227.991149C-12.565910,208.072521,94.476995,216.946097,136.030445,270.960184C177.583895,324.974271,194.079154,376.149078,270.519733,387.350763C346.960312,398.552448,320.573138,333.749452,262.776833,302.224195C204.980528,270.698937,8.930506,264.821701,8.930506,264.821701C8.930506,264.821701,86.012967,407.319072,220.914252,431.101285Z" transform="matrix(1 0 0 1 46.39171900000019 227.46827600000020)" fill="none" stroke="url(#emxqs2va3GN9-stroke)" stroke-width="5" stroke-miterlimit="36" stroke-dashoffset="2659.740000" stroke-dasharray="2659.740000"/></svg>